# File created by Blade
# Date/Time:  Tue Jan 27 18:05:51 2015
#---------------------------------------------------------
:version 1.10
:name HOM
:units
  mass 1.0
  length 1.000000
  angle deg
:documentation
     Acclaim Skeleton File
:root
   axis xyz
   order TX TY TZ RX RY RZ
   position 0.000000 0.000000 0.000000
   orientation 0 0 0
:bonedata
   begin
      id 1
      name Spine_dum
      direction 0.000000 1.000000 0.000000
      length 5.195262
      axis 0.0 0.0 0.0 xyz
   end
   begin
      id 2
      name LeftUpLeg_dum
      direction 1.000000 0.000000 0.000000
      length 3.351363
      axis 0.0 0.0 0.0 xyz
   end
   begin
      id 3
      name RightUpLeg_dum
      direction -1.000000 0.000000 0.000000
      length 3.351363
      axis 0.0 0.0 0.0 xyz
   end
   begin
      id 4
      name Spine
      direction 0.000000 1.000000 0.000000
      length 0.000000
      axis 0.0 0.0 0.0 xyz
      dof rx ry rz
   end
   begin
      id 5
      name Spine_dum1
      direction 0.000000 1.000000 0.000000
      length 15.653875
      axis 0.0 0.0 0.0 xyz
   end
   begin
      id 6
      name Spine_dum2
      direction 0.000000 1.000000 0.000000
      length 10.329768
      axis 0.0 0.0 0.0 xyz
   end
   begin
      id 7
      name Spine_dum3
      direction 0.000000 1.000000 0.000000
      length 10.329768
      axis 0.0 0.0 0.0 xyz
   end
   begin
      id 8
      name Head
      direction 0.000000 1.000000 0.000000
      length 4.527550
      axis 0.0 0.0 0.0 xyz
      dof rx ry rz
   end
   begin
      id 9
      name LeftShoulder
      direction 1.000000 0.000000 0.000000
      length 6.996006
      axis 0.0 0.0 -90.0 xyz
      dof rx ry rz
   end
   begin
      id 10
      name LeftArm
      direction 1.000000 0.000000 0.000000
      length 10.209302
      axis 0.0 0.0 -90.0 xyz
      dof rx ry rz
   end
   begin
      id 11
      name LeftForeArm
      direction 1.000000 0.000000 0.000000
      length 8.563163
      axis 0.0 0.0 -90.0 xyz
      dof ry rz rx
   end
   begin
      id 12
      name LeftHand
      direction 0.000000 0.000000 0.000000
      length 0.000000
      axis 0.0 0.0 -90.0 xyz
      dof rx ry rz
   end
   begin
      id 13
      name LeftHand_dum1
      direction 0.000000 0.000000 0.000000
      length 0.000000
      axis 0.0 0.0 -90.0 xyz
   end
   begin
      id 14
      name LeftHand_dum2
      direction 1.000000 0.000000 0.000000
      length 3.937000
      axis 0.0 0.0 -90.0 xyz
   end
   begin
      id 15
      name LeftHandThumb1
      direction 0.000000 0.000000 1.000000
      length 3.937000
      axis 0.0 0.0 -90.0 xyz
      dof rx rz ry
   end
   begin
      id 16
      name RightShoulder
      direction -1.000000 0.000000 0.000000
      length 6.996006
      axis 0.0 0.0 90.0 xyz
      dof rx ry rz
   end
   begin
      id 17
      name RightArm
      direction -1.000000 0.000000 0.000000
      length 10.209302
      axis 0.0 0.0 90.0 xyz
      dof rx ry rz
   end
   begin
      id 18
      name RightForeArm
      direction -1.000000 0.000000 0.000000
      length 8.563163
      axis 0.0 0.0 90.0 xyz
      dof ry rz rx
   end
   begin
      id 19
      name RightHand
      direction 0.000000 0.000000 0.000000
      length 0.000000
      axis 0.0 0.0 90.0 xyz
      dof rx ry rz
   end
   begin
      id 20
      name RightHand_dum1
      direction 0.000000 0.000000 0.000000
      length 0.000000
      axis 0.0 0.0 90.0 xyz
   end
   begin
      id 21
      name RightHand_dum2
      direction -1.000000 0.000000 0.000000
      length 3.937000
      axis 0.0 0.0 90.0 xyz
   end
   begin
      id 22
      name RightHandThumb1
      direction 0.000000 0.000000 1.000000
      length 3.937000
      axis 0.0 0.0 90.0 xyz
      dof rx rz ry
   end
   begin
      id 23
      name LeftUpLeg
      direction 0.000000 -1.000000 0.000000
      length 16.346831
      axis 0.0 0.0 0.0 xyz
      dof rx ry rz
   end
   begin
      id 24
      name LeftLeg
      direction 0.000000 -1.000000 0.000000
      length 13.959795
      axis 0.0 0.0 0.0 xyz
      dof rx ry rz
   end
   begin
      id 25
      name LeftFoot
      direction 0.000000 -0.258819 0.965926
      length 5.165550
      axis 15.0 0.0 0.0 xyz
      dof rx ry rz
   end
   begin
      id 26
      name LeftToeBase
      direction 0.000000 0.000000 1.000000
      length 2.952750
      axis 0.0 0.0 0.0 xyz
      dof rx ry rz
   end
   begin
      id 27
      name RightUpLeg
      direction 0.000000 -1.000000 0.000000
      length 16.346831
      axis 0.0 0.0 0.0 xyz
      dof rx ry rz
   end
   begin
      id 28
      name RightLeg
      direction 0.000000 -1.000000 0.000000
      length 13.959795
      axis 0.0 0.0 0.0 xyz
      dof rx ry rz
   end
   begin
      id 29
      name RightFoot
      direction 0.000000 -0.258819 0.965926
      length 5.165550
      axis 15.0 0.0 0.0 xyz
      dof rx ry rz
   end
   begin
      id 30
      name RightToeBase
      direction 0.000000 0.000000 1.000000
      length 2.952750
      axis 0.0 0.0 0.0 xyz
      dof rx ry rz
   end
:hierarchy
   begin
      root Spine_dum LeftUpLeg_dum RightUpLeg_dum
      Spine_dum Spine
      LeftUpLeg_dum LeftUpLeg
      RightUpLeg_dum RightUpLeg
      Spine Spine_dum1 Spine_dum2 Spine_dum3
      Spine_dum1 Head
      Spine_dum2 LeftShoulder
      Spine_dum3 RightShoulder
      LeftShoulder LeftArm
      LeftArm LeftForeArm
      LeftForeArm LeftHand
      LeftHand LeftHand_dum1 LeftHand_dum2
      LeftHand_dum1 LeftHandThumb1
      RightShoulder RightArm
      RightArm RightForeArm
      RightForeArm RightHand
      RightHand RightHand_dum1 RightHand_dum2
      RightHand_dum1 RightHandThumb1
      LeftUpLeg LeftLeg
      LeftLeg LeftFoot
      LeftFoot LeftToeBase
      RightUpLeg RightLeg
      RightLeg RightFoot
      RightFoot RightToeBase
   end

# File created by Blade
# Date/Time:  Tue Jan 27 18:05:41 2015
# Frame Rate: 120.000 fps
#------------------------------------------------------
:FULLY-SPECIFIED
:DEGREES
1169
root -1.144047 31.889613 -5.895820 5.666414 26.951261 6.129500
Spine -9.391800 4.286743 -4.589530
Head 4.167861 -16.105819 -5.270782
LeftShoulder -8.630964 15.023332 5.657481
LeftArm 24.562165 39.872456 -71.645794
LeftForeArm -1.643836 -0.000000 13.926342
LeftHand -10.918967 -0.000000 -5.619567
LeftHandThumb1 -26.253704 0.000000 33.147579
RightShoulder -6.155140 45.564093 -51.875109
RightArm 65.573415 19.740990 94.977572
RightForeArm 37.855394 -0.000000 21.197154
RightHand -15.637896 0.000000 -1.090638
RightHandThumb1 -24.326973 -0.000000 -32.862282
LeftUpLeg -1.137194 -12.779054 -2.007034
LeftLeg 1.364306 -0.000000 -0.000000
LeftFoot -12.942760 9.665143 -23.675132
LeftToeBase 8.443037 -0.000000 -0.000000
RightUpLeg 7.607639 -15.992623 -5.153268
RightLeg -3.645024 -0.000000 0.000000
RightFoot -19.009134 -21.300443 13.151673
RightToeBase 5.383972 -0.000000 -0.000000
1170
root -1.148030 31.890224 -5.898798 5.654572 27.010388 6.130615
Spine -9.387657 4.326443 -4.626410
Head 4.133857 -16.106867 -5.290528
LeftShoulder -8.623917 15.050126 5.660572
LeftArm 24.571707 39.836793 -71.643980
LeftForeArm -1.687917 -0.000000 13.961706
LeftHand -10.878601 0.000000 -5.578252
LeftHandThumb1 -26.253704 0.000000 33.147579
RightShoulder -6.228199 45.328327 -51.893305
RightArm 65.688817 19.478920 94.729788
RightForeArm 38.230655 -0.000000 19.608345
RightHand -16.604876 -0.000000 -1.826344
RightHandThumb1 -24.326973 -0.000000 -32.862282
LeftUpLeg -1.136788 -12.812246 -2.002007
LeftLeg 1.362022 -0.000000 -0.000000
LeftFoot -12.925847 9.677444 -23.637903
LeftToeBase 8.459218 -0.000000 -0.000000
RightUpLeg 7.608400 -16.089144 -5.151005
RightLeg -3.612192 -0.000000 0.000000
RightFoot -19.018778 -21.272191 13.143296
RightToeBase 5.380697 -0.000000 -0.000000
1171
root -1.154486 31.890528 -5.902106 5.651949 27.074827 6.123671
Spine -9.387600 4.366861 -4.665712
Head 4.093065 -16.098820 -5.301172
LeftShoulder -8.622157 15.071131 5.666902
LeftArm 24.553946 39.763793 -71.660209
LeftForeArm -1.643909 -0.000000 14.034067
LeftHand -10.851310 0.000000 -5.594172
LeftHandThumb1 -26.253704 0.000000 33.147579
RightShoulder -6.325303 45.101334 -51.914406
RightArm 65.822657 19.241556 94.563019
RightForeArm 38.572268 0.000000 18.048135
RightHand -17.441699 -0.000000 -2.252572
RightHandThumb1 -24.326973 -0.000000 -32.862282
LeftUpLeg -1.150047 -12.838553 -1.978666
LeftLeg 1.355933 -0.000000 -0.000000
LeftFoot -12.902620 9.642030 -23.679025
LeftToeBase 8.455293 -0.000000 -0.000000
RightUpLeg 7.604412 -16.133875 -5.127805
RightLeg -3.602027 -0.000000 0.000000
RightFoot -19.013346 -21.295770 13.124035
RightToeBase 5.363823 -0.000000 -0.000000
1172
root -1.159879 31.891855 -5.905077 5.653612 27.145810 6.117021
Spine -9.386051 4.379986 -4.688505
Head 4.038672 -16.067862 -5.343728
LeftShoulder -8.633379 15.099636 5.653750
LeftArm 24.581813 39.736834 -71.635565
LeftForeArm -1.659952 -0.000000 14.042780
LeftHand -10.845314 -0.000000 -5.526911
LeftHandThumb1 -26.253704 0.000000 33.147579
RightShoulder -6.571031 45.687753 -52.143199
RightArm 65.078650 19.053602 94.179490
RightForeArm 38.964441 -0.000000 16.597433
RightHand -18.345135 -0.000000 -2.721672
RightHandThumb1 -24.326973 -0.000000 -32.862282
LeftUpLeg -1.164778 -12.865993 -1.954853
LeftLeg 1.343743 -0.000000 -0.000000
LeftFoot -12.861323 9.608985 -23.678036
LeftToeBase 8.454150 -0.000000 -0.000000
RightUpLeg 7.606842 -16.160963 -5.103460
RightLeg -3.609561 -0.000000 0.000000
RightFoot -19.010354 -21.338025 13.145723
RightToeBase 5.390670 -0.000000 -0.000000
1173
root -1.166208 31.892186 -5.908818 5.660430 27.221653 6.113704
Spine -9.387710 4.376796 -4.722446
Head 3.998739 -16.026191 -5.364620
LeftShoulder -8.641796 15.095116 5.665506
LeftArm 24.563024 39.726181 -71.645296
LeftForeArm -1.718069 -0.000000 14.055358
LeftHand -10.884274 -0.000000 -5.610264
LeftHandThumb1 -26.253704 0.000000 33.147579
RightShoulder -6.564999 45.047774 -52.019968
RightArm 65.699436 18.838044 94.267969
RightForeArm 39.206786 -0.000000 15.322966
RightHand -19.432544 -0.000000 -3.468090
RightHandThumb1 -24.326973 -0.000000 -32.862282
LeftUpLeg -1.188445 -12.885189 -1.932329
LeftLeg 1.336777 -0.000000 -0.000000
LeftFoot -12.833620 9.575672 -23.684155
LeftToeBase 8.446843 -0.000000 -0.000000
RightUpLeg 7.604081 -16.192712 -5.079368
RightLeg -3.616064 -0.000000 0.000000
RightFoot -19.014388 -21.386500 13.143844
RightToeBase 5.368846 -0.000000 -0.000000
1174
root -1.171211 31.892330 -5.913206 5.671723 27.295183 6.112904
Spine -9.387601 4.358855 -4.743356
Head 3.950480 -15.925649 -5.376564
LeftShoulder -8.664702 15.157179 5.650508
LeftArm 24.585079 39.646650 -71.643192
LeftForeArm -1.770673 -0.000000 14.073953
LeftHand -10.922727 -0.000000 -5.625458
LeftHandThumb1 -26.253704 0.000000 33.147579
RightShoulder -6.604979 44.697710 -52.010124
RightArm 65.978793 18.707588 94.393119
RightForeArm 39.343931 0.000000 14.282278
RightHand -20.510620 -0.000000 -4.215727
RightHandThumb1 -24.326973 -0.000000 -32.862282
LeftUpLeg -1.213600 -12.896830 -1.914942
LeftLeg 1.327446 -0.000000 -0.000000
LeftFoot -12.783783 9.538469 -23.658559
LeftToeBase 8.413248 -0.000000 -0.000000
RightUpLeg 7.595884 -16.218539 -5.059766
RightLeg -3.617083 -0.000000 0.000000
RightFoot -19.026111 -21.421997 13.175140
RightToeBase 5.417529 -0.000000 -0.000000
1175
root -1.176295 31.892794 -5.916544 5.680927 27.361254 6.112963
Spine -9.391423 4.350036 -4.774745
Head 3.931460 -15.878061 -5.423212
LeftShoulder -8.683687 15.195750 5.645479
LeftArm 24.551410 39.547934 -71.685442
LeftForeArm -1.755070 0.000000 14.090137
LeftHand -10.871867 -0.000000 -5.648428
LeftHandThumb1 -26.253704 0.000000 33.147579
RightShoulder -6.644449 44.544415 -52.007963
RightArm 65.947693 18.623604 94.460455
RightForeArm 39.531637 -0.000000 13.616909
RightHand -21.820949 -0.000000 -5.382611
RightHandThumb1 -24.326973 -0.000000 -32.862282
LeftUpLeg -1.234658 -12.911017 -1.896933
LeftLeg 1.316617 -0.000000 -0.000000
LeftFoot -12.749044 9.491944 -23.660805
LeftToeBase 8.424715 -0.000000 -0.000000
RightUpLeg 7.592329 -16.241087 -5.040499
RightLeg -3.624260 -0.000000 0.000000
RightFoot -19.031743 -21.478986 13.160175
RightToeBase 5.399419 -0.000000 -0.000000
1176
root -1.182013 31.892965 -5.917626 5.677653 27.417612 6.084022
Spine -9.397715 4.339538 -4.773284
Head 3.904926 -15.786853 -5.461284
LeftShoulder -8.671906 15.186480 5.662624
LeftArm 24.440639 39.482438 -71.774104
LeftForeArm -1.823468 0.000000 14.096257
LeftHand -10.838541 -0.000000 -5.601991
LeftHandThumb1 -26.253704 0.000000 33.147579
RightShoulder -6.663695 44.482470 -52.011184
RightArm 65.760734 18.574707 94.548852
RightForeArm 39.697666 0.000000 13.280292
RightHand -23.114478 -0.000000 -6.730017
RightHandThumb1 -24.326973 -0.000000 -32.862282
LeftUpLeg -1.260626 -12.841162 -1.857345
LeftLeg 1.326170 -0.000000 -0.000000
LeftFoot -12.704064 9.403039 -23.609630
LeftToeBase 8.421221 -0.000000 -0.000000
RightUpLeg 7.587190 -16.257486 -4.992516
RightLeg -3.631342 -0.000000 0.000000
RightFoot -19.028883 -21.519122 13.180398
RightToeBase 5.393912 -0.000000 -0.000000
1177
root -1.185799 31.893339 -5.920678 5.688336 27.482517 6.086324
Spine -9.396808 4.304597 -4.796301
Head 3.877276 -15.682632 -5.496955
LeftShoulder -8.690790 15.217331 5.654541
LeftArm 24.411856 39.424009 -71.797014
LeftForeArm -1.899288 -0.000000 14.080086
LeftHand -10.781579 0.000000 -5.518288
LeftHandThumb1 -26.253704 0.000000 33.147579
RightShoulder -6.656559 44.410373 -51.995961
RightArm 65.513717 18.544898 94.620733
RightForeArm 39.967630 -0.000000 13.164120
RightHand -24.052498 -0.000000 -7.750782
RightHandThumb1 -24.326973 -0.000000 -32.862282
LeftUpLeg -1.273854 -12.864073 -1.846556
LeftLeg 1.303533 -0.000000 -0.000000
LeftFoot -12.673534 9.392094 -23.579887
LeftToeBase 8.440057 -0.000000 -0.000000
RightUpLeg 7.581818 -16.292594 -4.979784
RightLeg -3.632887 -0.000000 0.000000
RightFoot -19.032168 -21.542288 13.196542
RightToeBase 5.388671 -0.000000 -0.000000
1178
root -1.190439 31.893492 -5.924522 5.700994 27.540377 6.081533
Spine -9.398139 4.265911 -4.811816
Head 3.845395 -15.581758 -5.520750
LeftShoulder -8.695166 15.223925 5.664524
LeftArm 24.313022 39.336717 -71.889585
LeftForeArm -1.966978 -0.000000 14.084049
LeftHand -10.844677 -0.000000 -5.519612
LeftHandThumb1 -26.253704 0.000000 33.147579
RightShoulder -6.566561 44.212951 -51.879636
RightArm 65.360969 18.494492 94.650241
RightForeArm 40.173400 -0.000000 13.233311
RightHand -24.713515 -0.000000 -8.488653
RightHandThumb1 -24.326973 -0.000000 -32.862282
LeftUpLeg -1.292761 -12.872930 -1.826774
LeftLeg 1.278236 -0.000000 -0.000000
LeftFoot -12.628372 9.359950 -23.562743
LeftToeBase 8.409306 -0.000000 -0.000000
RightUpLeg 7.569531 -16.328018 -4.957743
RightLeg -3.638602 -0.000000 0.000000
RightFoot -19.035028 -21.573366 13.202837
RightToeBase 5.411440 -0.000000 -0.000000
